<svg version="1.1" id="Layer_1" xmlns="http://www.w3.org/2000/svg" xmlns:xlink="http://www.w3.org/1999/xlink" x="0px" y="0px"
	 width="100%" viewBox="0 0 992 1008" enable-background="new 0 0 992 1008" xml:space="preserve">
<path fill="#000000" opacity="1.000000" stroke="none" 
	d="
M481.600006,1.000000 
	C499.613312,6.533253 517.208374,12.125425 534.843689,17.587486 
	C571.401611,28.910276 607.980713,40.164558 644.552246,51.443272 
	C645.792725,51.825832 647.253540,51.745838 648.480164,54.032391 
	C592.860352,88.151184 537.191711,122.299919 480.810120,156.885986 
	C498.333099,179.498550 515.515442,201.671524 532.815063,223.995834 
	C534.937927,222.790558 535.018982,220.789673 535.595642,219.203842 
	C543.218201,198.241730 550.892029,177.296463 558.242004,156.238434 
	C559.789734,151.804062 562.196167,150.191574 566.747864,149.533722 
	C593.705505,145.637451 620.609314,141.369324 647.536926,137.263733 
	C673.158875,133.357224 698.791016,129.518356 724.412109,125.606110 
	C736.237671,123.800385 748.053101,121.925705 759.861877,120.012939 
	C765.549377,119.091690 766.306702,119.601639 766.308594,125.362511 
	C766.325439,177.694427 766.263184,230.026489 766.410522,282.357971 
	C766.423889,287.123596 764.679138,288.270142 760.278748,288.255737 
	C723.280212,288.134491 686.280762,288.252411 649.282410,288.105011 
	C645.017334,288.088013 642.308716,289.343170 639.697266,292.823059 
	C622.597961,315.608704 605.245728,338.204651 587.984314,360.868744 
	C587.002808,362.157471 585.650024,363.239655 585.391968,365.797974 
	C587.739441,365.797974 589.992798,365.796997 592.246216,365.798126 
	C623.078674,365.813751 653.911133,365.830048 684.743591,365.845123 
	C691.272644,365.848328 691.539673,365.961578 691.234924,372.627411 
	C689.691528,406.387756 688.023438,440.142456 686.471313,473.902435 
	C685.966675,484.878601 685.555847,495.862549 685.356262,506.847534 
	C685.277832,511.162048 684.312073,512.586975 679.479126,511.645447 
	C634.149780,502.814545 588.764709,494.270050 543.398376,485.629211 
	C522.347107,481.619629 501.304108,477.566498 480.248688,473.578735 
	C478.493439,473.246307 476.671997,473.263214 474.959686,473.124207 
	C473.797333,475.305298 474.251953,477.342987 474.249298,479.294281 
	C474.214081,505.293518 474.099701,531.294006 474.338470,557.291077 
	C474.384796,562.337280 472.426941,563.737183 467.824371,564.405212 
	C440.363892,568.390564 412.948151,572.683411 385.511475,576.833740 
	C357.747437,581.033569 329.976440,585.187256 302.208649,589.362305 
	C297.772247,590.029358 293.259064,590.389038 288.923157,591.463196 
	C284.665070,592.518066 283.050873,590.978516 281.932739,587.013062 
	C276.110535,566.363770 270.050293,545.781616 264.076019,525.175171 
	C253.374054,488.261963 242.658447,451.352631 232.013779,414.422882 
	C231.385101,412.241760 230.130646,410.090820 231.019058,407.025574 
	C238.375900,406.630310 245.937592,406.077698 253.509155,405.842194 
	C289.465240,404.723785 325.424530,403.708618 361.381409,402.614807 
	C368.370239,402.402222 375.351105,401.872650 382.340240,401.748108 
	C385.612366,401.689789 386.516541,400.325684 386.711884,397.214783 
	C388.921783,362.017700 391.269501,326.829254 393.570648,291.637878 
	C393.852814,287.322937 393.386597,282.959015 394.395874,278.691956 
	C395.420258,274.361115 393.562561,273.129059 389.374817,273.326508 
	C372.910583,274.102905 356.438538,274.746033 339.963837,275.261261 
	C305.174042,276.349304 270.381042,277.335297 235.588272,278.326080 
	C233.320740,278.390656 230.967224,278.750183 228.042282,277.356262 
	C257.703064,200.249863 287.307678,123.289566 317.298431,45.325409 
	C348.697357,67.935501 379.285950,89.962051 410.384857,112.356087 
	C414.367889,105.916924 417.979858,100.169411 421.502441,94.367599 
	C440.262451,63.469067 459.000031,32.556915 477.872681,1.324741 
	C479.066681,1.000000 480.133331,1.000000 481.600006,1.000000 
M551.121948,362.648712 
	C576.160767,329.788269 601.235962,296.955414 626.179382,264.022736 
	C628.546753,260.897156 631.101013,259.684540 634.998047,259.701904 
	C666.994202,259.844574 698.991211,259.799683 730.987915,259.810211 
	C732.321045,259.810669 733.654358,259.776611 734.987183,259.792297 
	C737.510132,259.821930 738.453125,258.642365 738.449158,256.086426 
	C738.398499,223.103714 738.413513,190.120865 738.441406,157.138092 
	C738.444702,153.213593 736.705872,151.851532 732.812439,152.458252 
	C684.196594,160.034348 635.584290,167.637283 586.924683,174.923279 
	C582.306152,175.614838 580.539490,177.517700 579.095520,181.583206 
	C568.678284,210.914124 558.056335,240.172668 547.401428,269.418518 
	C545.950745,273.400574 545.100586,277.682770 542.057678,282.003876 
	C507.673401,237.613052 473.606262,193.631638 439.221771,149.240540 
	C486.995270,119.945168 533.970154,91.139519 581.746155,61.842583 
	C578.961914,60.811237 577.435852,60.161308 575.859436,59.674683 
	C549.630249,51.578224 523.360718,43.609676 497.192322,35.321964 
	C492.519165,33.841946 490.396301,35.318203 488.072388,39.163460 
	C466.015106,75.660461 443.729370,112.019440 421.691132,148.527847 
	C419.352966,152.401215 417.745636,152.718262 414.115265,150.069885 
	C387.734283,130.824844 361.205231,111.782837 334.719513,92.681427 
	C333.535522,91.827553 332.546082,90.547760 329.930817,90.892723 
	C309.891632,143.016235 289.705719,195.521332 269.590027,247.843735 
	C271.918793,249.323456 273.442200,248.969650 274.915222,248.926636 
	C287.232849,248.566910 299.550415,248.204941 311.867065,247.814514 
	C329.837280,247.244904 347.805450,246.607391 365.776855,246.079926 
	C383.591034,245.557053 401.410583,245.207153 419.222107,244.611343 
	C423.111969,244.481232 424.825836,245.734833 424.335907,249.714676 
	C423.929596,253.015045 423.587799,256.329651 423.388672,259.648224 
	C421.963470,283.398590 420.656281,307.156158 419.168213,330.902496 
	C417.263763,361.294525 415.201813,391.676636 413.262543,422.066528 
	C412.855225,428.449768 412.349945,429.001740 405.841553,429.201050 
	C387.698761,429.756653 369.557709,430.370209 351.415039,430.930664 
	C324.947205,431.748291 298.480591,432.621552 272.008331,433.260254 
	C267.655365,433.365295 266.922058,434.600311 268.171326,438.622894 
	C271.721802,450.055511 274.919678,461.597565 278.263092,473.094574 
	C286.249939,500.559021 294.275238,528.012390 302.186218,555.498657 
	C303.179718,558.950439 304.101654,560.829102 308.590790,559.967285 
	C319.836273,557.808350 331.229919,556.424011 342.560547,554.705139 
	C375.070648,549.773254 407.557007,544.674866 440.111084,540.052917 
	C445.150482,539.337463 445.877075,537.317810 445.858307,533.013123 
	C445.731201,503.850037 445.800659,474.686096 445.812927,445.522430 
	C445.815857,438.584106 445.841583,438.507141 452.304993,439.736755 
	C491.661499,447.223969 531.009644,454.755188 570.362915,462.259369 
	C598.280579,467.582947 626.206848,472.861847 654.114258,478.238617 
	C656.922424,478.779663 658.549805,478.631073 658.681702,475.152100 
	C659.621277,450.371948 660.717102,425.597687 661.659180,400.817627 
	C661.909363,394.235596 661.743042,394.210571 655.159424,394.210419 
	C614.996887,394.209564 574.834351,394.233765 534.671875,394.175934 
	C532.688538,394.173065 530.327515,395.123352 528.395569,392.518066 
	C535.814941,382.779724 543.262756,373.003937 551.121948,362.648712 
z"/>
<path fill="#000000" opacity="1.000000" stroke="none" 
	d="
M274.508240,624.176758 
	C281.941925,622.104065 289.141785,623.274902 296.274933,623.070251 
	C302.934998,622.879089 309.607330,622.909180 316.269653,623.053650 
	C324.100494,623.223450 326.332855,625.575195 326.334747,633.324402 
	C326.347412,685.148926 326.349396,736.973389 326.343018,788.797913 
	C326.342102,796.314392 324.356079,798.343323 316.971313,798.362000 
	C304.806824,798.392822 292.642120,798.395508 280.477570,798.376648 
	C272.392883,798.364136 270.662628,796.574463 270.655579,788.273743 
	C270.642426,772.776367 270.509583,757.276978 270.740997,741.783081 
	C270.804138,737.554932 269.281769,736.171448 265.296173,736.219604 
	C255.799362,736.334534 246.297104,736.373230 236.803040,736.167114 
	C232.702820,736.078064 231.235550,737.526672 231.281586,741.677429 
	C231.455322,757.339478 231.362610,773.004639 231.341537,788.668640 
	C231.331039,796.471924 229.437195,798.349548 221.600433,798.363403 
	C209.269257,798.385254 196.937866,798.411072 184.606812,798.366821 
	C177.825851,798.342529 175.665909,796.172058 175.663239,789.362610 
	C175.642883,737.204834 175.642227,685.047058 175.660385,632.889282 
	C175.662827,625.891174 177.820023,623.297852 184.717789,623.158813 
	C197.210022,622.906921 209.714111,622.912537 222.206879,623.148254 
	C229.156906,623.279297 231.325500,625.848877 231.338516,632.786621 
	C231.367569,648.283936 231.481934,663.783264 231.261337,679.277527 
	C231.201035,683.513428 232.703415,684.785828 236.733856,684.705627 
	C246.228424,684.516602 255.733185,684.491333 265.225983,684.722656 
	C269.479401,684.826355 270.727325,683.071899 270.696503,679.097412 
	C270.576263,663.600952 270.680298,648.103027 270.635590,632.605774 
	C270.626038,629.302795 270.914124,626.241882 274.508240,624.176758 
z"/>
<path fill="#000000" opacity="1.000000" stroke="none" 
	d="
M436.000122,623.635437 
	C445.664825,623.640869 454.830780,623.741882 463.993744,623.618347 
	C469.903351,623.538635 473.791992,626.075562 475.882141,631.596924 
	C484.131104,653.387817 492.531036,675.122375 500.649689,696.961487 
	C504.677094,707.795227 506.616760,719.002991 506.411865,730.687988 
	C506.075958,749.844604 506.336487,769.011536 506.316101,788.174072 
	C506.307739,796.034424 504.022797,798.349426 496.293121,798.364685 
	C484.129089,798.388733 471.964783,798.414124 459.801025,798.355469 
	C453.175751,798.323547 450.712189,795.880737 450.670837,789.357056 
	C450.609558,779.692810 450.544006,770.026306 450.701782,760.364319 
	C450.761139,756.730408 449.495148,755.277283 445.784668,755.328552 
	C435.122314,755.475830 424.455841,755.458679 413.792664,755.346802 
	C409.737854,755.304260 408.193115,756.912598 408.284088,761.027771 
	C408.493927,770.520996 408.371277,780.022278 408.332611,789.520081 
	C408.305878,796.085022 406.154724,798.325684 399.740173,798.353821 
	C387.576324,798.407166 375.411896,798.419556 363.248138,798.361267 
	C357.087402,798.331726 354.693329,796.004578 354.682220,789.969238 
	C354.639648,766.807678 354.484680,743.643677 354.763000,720.485291 
	C354.884247,710.395447 358.418518,700.882751 361.880615,691.545471 
	C369.345764,671.412048 377.174988,651.413391 384.896698,631.375549 
	C386.924561,626.113281 390.876068,623.627502 396.508331,623.639282 
	C409.505524,623.666565 422.502838,623.640381 436.000122,623.635437 
M446.113434,706.182739 
	C443.090759,696.339539 440.110870,686.482910 437.021149,676.660767 
	C436.003082,673.424316 434.157379,671.228333 430.218903,671.267517 
	C426.807922,671.301575 423.737762,671.613281 422.540436,675.307068 
	C419.159149,685.738464 415.902618,696.210510 412.630432,706.676941 
	C411.872955,709.099915 412.642944,710.625671 415.390106,710.629150 
	C424.874817,710.641235 434.359619,710.641541 443.844238,710.611267 
	C446.376587,710.603149 446.947266,709.142517 446.113434,706.182739 
z"/>
<path fill="#000000" opacity="1.000000" stroke="none" 
	d="
M73.443230,683.846191 
	C86.964447,685.867249 100.115501,687.737610 113.258865,689.660400 
	C118.215416,690.385620 123.006851,691.751343 127.652321,693.641541 
	C139.526474,698.472961 146.443909,707.484619 148.068024,719.923523 
	C149.858765,733.638550 149.944855,747.560242 148.413422,761.288818 
	C146.165863,781.437256 134.598297,793.203796 114.518608,797.144653 
	C110.771141,797.880188 107.006386,798.423645 103.136406,798.413025 
	C76.312614,798.339539 49.488510,798.387207 22.664528,798.368347 
	C14.595519,798.362732 12.689436,796.437134 12.666578,788.361023 
	C12.641115,779.364197 12.637390,770.367188 12.671193,761.370422 
	C12.698106,754.207458 15.120822,751.715027 22.225838,751.700867 
	C43.051849,751.659485 63.878048,751.653442 84.704002,751.705017 
	C87.782043,751.712646 90.230408,751.005676 91.738258,748.051819 
	C93.232597,745.124329 92.470985,742.509949 90.767220,740.091492 
	C89.180374,737.838989 86.625580,737.663025 84.103828,737.303406 
	C70.623360,735.381409 57.061703,733.844788 43.711163,731.237610 
	C22.527367,727.100769 12.670608,714.533386 12.661998,693.009521 
	C12.658132,683.346252 12.650921,673.682922 12.667613,664.019653 
	C12.698833,645.946411 22.434576,632.529663 39.476440,626.640686 
	C47.147739,623.989685 55.045856,623.111145 63.040722,623.067993 
	C84.532608,622.952026 106.025581,623.012146 127.518059,623.043640 
	C138.251007,623.059387 140.300705,625.158142 140.315170,635.942383 
	C140.325912,643.939575 140.368301,651.937439 140.287827,659.933838 
	C140.206223,668.045715 137.853317,670.340454 129.856522,670.351440 
	C112.196053,670.375671 94.535522,670.374817 76.875130,670.424988 
	C73.108719,670.435730 69.878151,671.515991 68.843025,675.688232 
	C67.883728,679.554932 69.764534,682.037964 73.443230,683.846191 
z"/>
<path fill="#000000" opacity="1.000000" stroke="none" 
	d="
M990.023987,738.014404 
	C989.873962,747.660400 990.804016,756.883362 988.982483,765.928284 
	C985.624023,782.604370 973.101990,793.911438 954.792725,797.264343 
	C950.686890,798.016235 946.575562,798.411194 942.391479,798.403320 
	C916.231079,798.354004 890.070435,798.388245 863.909912,798.370422 
	C855.501587,798.364685 853.668213,796.504883 853.654968,788.095398 
	C853.641052,779.264160 853.632385,770.432800 853.658386,761.601624 
	C853.680603,754.059265 855.977051,751.702576 863.444275,751.691467 
	C883.772827,751.661133 904.101440,751.689331 924.429993,751.674744 
	C930.466003,751.670410 933.459534,749.407166 933.531860,744.889648 
	C933.602966,740.449707 930.528748,738.068298 924.788025,737.281006 
	C911.299866,735.431030 897.730469,733.897156 884.406738,731.188416 
	C863.132935,726.863586 853.652283,714.509644 853.651611,692.740112 
	C853.651367,683.908875 853.842468,675.072693 853.615906,666.247253 
	C852.992676,641.972412 867.560547,628.946411 887.427795,624.669800 
	C892.825256,623.507935 898.307556,623.087769 903.785706,623.063232 
	C925.280273,622.966919 946.775513,623.013306 968.270447,623.051086 
	C979.236328,623.070374 981.308350,625.206726 981.320496,636.279785 
	C981.329285,644.277893 981.394958,652.277161 981.286865,660.273865 
	C981.183350,667.935425 978.662598,670.339600 970.948181,670.355286 
	C954.785400,670.388062 938.622437,670.382202 922.459595,670.392944 
	C921.126587,670.393860 919.792664,670.370239 918.460693,670.409180 
	C912.786072,670.575073 909.672485,672.895325 909.488892,677.068970 
	C909.315369,681.017029 912.663818,683.935913 917.829285,684.683899 
	C931.144348,686.611938 944.613159,687.556458 957.771179,690.472412 
	C980.446838,695.497742 989.896973,707.352234 990.024658,730.518555 
	C990.037476,732.851318 990.024719,735.184143 990.023987,738.014404 
z"/>
<path fill="#000000" opacity="1.000000" stroke="none" 
	d="
M703.313477,797.076416 
	C700.463257,794.636169 700.082092,791.633118 700.080200,788.612122 
	C700.048401,736.951538 700.023315,685.290894 700.093506,633.630432 
	C700.104126,625.811584 702.528442,623.653625 710.388672,623.651184 
	C747.217712,623.639526 784.046814,623.638672 820.875854,623.654419 
	C828.812622,623.657837 831.173340,626.035217 831.232422,634.152649 
	C831.295471,642.817810 831.304871,651.484253 831.230469,660.149292 
	C831.165894,667.664673 828.457947,670.301880 820.909607,670.310669 
	C801.078613,670.333923 781.246765,670.412537 761.417175,670.248474 
	C757.000366,670.211914 755.119568,671.416077 755.266479,676.177490 
	C755.681274,689.618896 753.661865,687.498718 766.627808,687.622620 
	C778.458679,687.735718 790.291687,687.612061 802.123413,687.668091 
	C809.008789,687.700684 811.294495,690.055420 811.334229,697.061096 
	C811.381470,705.393188 811.373352,713.725891 811.337097,722.058044 
	C811.305481,729.309692 808.810608,731.932373 801.366760,731.997559 
	C788.869446,732.107056 776.370056,732.001587 763.871582,731.965942 
	C755.353088,731.941711 755.353210,731.926025 755.348511,740.463623 
	C755.342468,751.677612 755.342407,751.679260 766.800415,751.679810 
	C784.631653,751.680725 802.462952,751.664185 820.294189,751.685303 
	C828.700562,751.695251 831.210510,754.241699 831.244690,762.787781 
	C831.278687,771.286621 831.299072,779.786133 831.226379,788.284607 
	C831.161255,795.900940 828.628784,798.363403 820.946350,798.366760 
	C784.117310,798.382874 747.288208,798.381836 710.459167,798.361450 
	C708.156311,798.360168 705.759827,798.743286 703.313477,797.076416 
z"/>
<path fill="#000000" opacity="1.000000" stroke="none" 
	d="
M675.817261,666.468140 
	C675.830811,680.907898 676.439575,694.895020 675.452698,708.872009 
	C673.673950,734.065247 658.249146,744.726196 636.998962,748.285706 
	C624.102417,750.445862 611.069275,749.054565 598.100403,749.349609 
	C591.379761,749.502563 591.362122,749.391052 591.353760,755.902466 
	C591.339233,767.231079 591.385132,778.559814 591.327087,789.888184 
	C591.295044,796.147095 589.134460,798.320129 582.931885,798.345032 
	C569.937500,798.397156 556.942688,798.412476 543.948364,798.353027 
	C538.020813,798.325928 535.677673,796.062256 535.673889,790.263123 
	C535.639526,737.451904 535.638184,684.640625 535.674316,631.829407 
	C535.678162,626.211060 537.728699,623.912598 543.261108,623.274597 
	C546.225281,622.932617 549.247009,623.033081 552.242859,623.031250 
	C574.233643,623.017456 596.225159,622.927002 618.214966,623.077454 
	C628.033569,623.144653 637.829834,623.883362 647.261292,627.004395 
	C664.869019,632.830994 674.161743,644.919800 675.409363,663.540161 
	C675.464844,664.367981 675.637634,665.187988 675.817261,666.468140 
M606.340088,669.370728 
	C602.683716,669.378784 599.024963,669.472900 595.371826,669.368164 
	C592.350708,669.281433 591.233704,670.682800 591.255249,673.585571 
	C591.321899,682.559631 591.326538,691.534973 591.251465,700.508850 
	C591.226990,703.437622 592.412537,704.786011 595.380432,704.744690 
	C601.362000,704.661377 607.348877,704.810791 613.326172,704.625549 
	C617.833862,704.485962 620.778931,702.089294 621.743774,697.584045 
	C623.151428,691.010986 622.973572,684.428284 621.957092,677.803833 
	C621.250122,673.196411 618.636963,670.698730 614.197693,670.006287 
	C611.915283,669.650146 609.589172,669.573730 606.340088,669.370728 
z"/>
</svg>